<?xml version="1.0" encoding="utf-8"?>
<!-- Generator: Adobe Illustrator 16.0.0, SVG Export Plug-In . SVG Version: 6.00 Build 0)  -->
<!DOCTYPE svg PUBLIC "-//W3C//DTD SVG 1.1//EN" "http://www.w3.org/Graphics/SVG/1.1/DTD/svg11.dtd">
<svg version="1.1" xmlns="http://www.w3.org/2000/svg" xmlns:xlink="http://www.w3.org/1999/xlink" x="0px" y="0px" width="224px"
	 height="73px" viewBox="0 0 224 73" enable-background="new 0 0 224 73" xml:space="preserve">
<g id="Ellipse_2_copy_3_1_" opacity="0.702" enable-background="new    ">
	<g id="Ellipse_2_copy_3">
		<g>
			<path fill-rule="evenodd" clip-rule="evenodd" d="M0.021,10.67v51.941c0,0,27.171,10.388,64.532,10.388
				c37.36,0,71.325-10.388,71.325-10.388V10.67c0,0-24.907-10.388-67.928-10.388C24.927,0.282,0.021,10.67,0.021,10.67z
				 M182.705,0.282c-19.661,0-35.6,16.278-35.6,36.359c0,20.08,15.938,36.358,35.6,36.358c19.662,0,35.601-16.278,35.601-36.358
				C218.306,16.561,202.367,0.282,182.705,0.282z"/>
		</g>
	</g>
</g>
<g id="_x33_60_1_" enable-background="new    ">
	<g id="_x33_60">
		<g>
			<path fill-rule="evenodd" clip-rule="evenodd" fill="#E8E8E8" d="M45.008,35.651v-0.13c2.161-0.518,3.839-1.467,5.035-2.849
				c1.196-1.381,1.794-3.057,1.794-5.027c0-2.359-0.948-4.2-2.842-5.524c-1.895-1.323-4.477-1.985-7.747-1.985
				c-3.991,0-7.427,1.036-10.309,3.107l3.09,4.597c1.311-0.849,2.503-1.446,3.577-1.791c1.073-0.346,2.128-0.519,3.166-0.519
				c2.997,0,4.495,1.194,4.495,3.582c0,1.554-0.566,2.651-1.697,3.291c-1.131,0.641-2.921,0.96-5.37,0.96h-2.442v5.114h2.398
				c2.651,0,4.582,0.31,5.792,0.929c1.21,0.618,1.815,1.669,1.815,3.15c0,1.654-0.526,2.855-1.578,3.604
				c-1.052,0.748-2.68,1.122-4.884,1.122c-1.441,0-2.896-0.194-4.365-0.583c-1.47-0.389-2.817-0.892-4.042-1.511v5.676
				c2.651,1.137,5.691,1.704,9.12,1.704c4.091,0,7.24-0.845,9.444-2.535s3.307-4.053,3.307-7.089c0-2.085-0.656-3.743-1.967-4.974
				C49.489,36.741,47.558,35.968,45.008,35.651z M69.299,31.638c-3.141,0-5.424,1.223-6.851,3.668h-0.281
				c0.13-2.488,0.555-4.409,1.275-5.762c0.72-1.352,1.804-2.373,3.252-3.063c1.448-0.69,3.317-1.036,5.608-1.036
				c1.253,0,2.521,0.145,3.804,0.432v-5.33c-1.023-0.216-2.435-0.323-4.236-0.323c-5.273,0-9.232,1.524-11.875,4.574
				c-2.644,3.05-3.965,7.696-3.965,13.94c0,2.92,0.472,5.416,1.416,7.487c0.943,2.071,2.283,3.646,4.02,4.726
				c1.736,1.079,3.771,1.618,6.105,1.618c3.372,0,6.008-0.981,7.91-2.945s2.853-4.629,2.853-7.995c0-3.121-0.799-5.566-2.398-7.336
				C74.334,32.522,72.123,31.638,69.299,31.638z M70.725,45.804c-0.764,0.957-1.858,1.436-3.285,1.436
				c-1.383,0-2.525-0.59-3.425-1.77c-0.901-1.18-1.351-2.626-1.351-4.338c0-1.165,0.479-2.187,1.438-3.063
				c0.958-0.878,2.114-1.316,3.468-1.316c1.44,0,2.518,0.442,3.231,1.327c0.713,0.885,1.07,2.097,1.07,3.636
				C71.871,43.484,71.489,44.848,70.725,45.804z M100.624,24.236c-1.866-2.763-4.622-4.144-8.267-4.144
				c-3.746,0-6.519,1.32-8.32,3.96c-1.801,2.64-2.702,6.743-2.702,12.311c0,5.337,0.926,9.372,2.777,12.105
				c1.851,2.733,4.599,4.1,8.244,4.1c3.761,0,6.544-1.323,8.353-3.97c1.808-2.647,2.712-6.726,2.712-12.235
				C103.422,31.041,102.489,26.998,100.624,24.236z M95.729,44.649c-0.691,1.697-1.815,2.546-3.372,2.546
				c-1.585,0-2.712-0.838-3.382-2.514s-1.005-4.448-1.005-8.318s0.338-6.649,1.016-8.34s1.801-2.536,3.371-2.536
				c1.542,0,2.662,0.846,3.361,2.536c0.699,1.69,1.048,4.47,1.048,8.34C96.766,40.19,96.42,42.952,95.729,44.649z"/>
		</g>
	</g>
</g>
<g id="Shape_1_1_" enable-background="new    ">
	<g id="Shape_1">
		<g>
			<polygon fill="#F26522" points="211.666,5.876 180.789,36.642 169.562,25.454 161.141,33.845 180.789,53.422 220.088,14.267 			
				"/>
		</g>
	</g>
</g>
</svg>
