<?xml version="1.0" encoding="utf-8"?>
<!-- Generator: Adobe Illustrator 16.0.0, SVG Export Plug-In . SVG Version: 6.00 Build 0)  -->
<!DOCTYPE svg PUBLIC "-//W3C//DTD SVG 1.1//EN" "http://www.w3.org/Graphics/SVG/1.1/DTD/svg11.dtd">

<svg version="1.1" id="_x33_60_1_" xmlns="http://www.w3.org/2000/svg" xmlns:xlink="http://www.w3.org/1999/xlink" x="0px" y="0px"
	 width="50px" height="50px" viewBox="0 0 50 50" enable-background="new 0 0 50 50" xml:space="preserve">
<g id="_x33_60">
	<g>
		<path fill-rule="evenodd" clip-rule="evenodd" fill="#2BABE2" d="M3.075,19.764C3.056,19.914,3.057,20,3.057,20L3.004,35.93h0.054
			c0.046,2.305,3.028,4.818,7.341,6.07l0.055-16.522C5.385,24.293,3.303,21.843,3.075,19.764z M24.675,22.81
			c-0.322,0-0.598,0.104-0.826,0.313s-0.342,0.451-0.342,0.728c0,0.406,0.107,0.749,0.321,1.029s0.486,0.42,0.815,0.42
			c0.34,0,0.6-0.113,0.782-0.34c0.182-0.228,0.273-0.551,0.273-0.972c0-0.365-0.086-0.652-0.256-0.862
			C25.274,22.914,25.018,22.81,24.675,22.81z M44.655,11.363l-3.208,1.117l0.398,1.097l5.152-1.795l-1.833-5.043l-1.12,0.39
			l1.061,2.919C42.791,8.894,35.713,5.919,24.33,6C10.743,6.097,4.062,10.499,4.062,10.499v1.597c0,0,6.005-4.688,20.268-4.789
			C35.186,7.229,41.987,10.008,44.655,11.363z M30.574,20.136c-0.374,0-0.641,0.2-0.803,0.602c-0.16,0.401-0.241,1.062-0.241,1.979
			c0,0.919,0.079,1.577,0.239,1.976c0.159,0.397,0.428,0.597,0.805,0.597c0.37,0,0.638-0.201,0.803-0.604
			c0.164-0.403,0.246-1.059,0.246-1.968c0-0.918-0.083-1.578-0.249-1.979C31.207,20.336,30.941,20.136,30.574,20.136z
			 M39.963,25.248l-0.057,16.754c4.273-1.237,6.975-3.852,7.035-6.13h0.002c0,0,0.039-11.425,0.055-15.567
			c0-0.064-0.002-0.128-0.006-0.191C46.881,22.202,44.576,24.296,39.963,25.248z M39.193,24.574c0,0,2.004,0.104,5.254-2.081
			c2.406-1.617,3.028-5.694-4.367-8.025c-3.143-0.99-8.117-2.081-14.834-2.081c-6.051,0-11.237,0.875-14.164,1.698
			c-8.61,2.425-7.71,6.827-4.468,8.558c2.892,1.544,4.804,1.932,4.804,1.932l0.3,9.81c16.242-6.149,30.851,1.916,27.475-0.148
			V24.574z M20.365,25.963c-0.524,0.401-1.274,0.602-2.248,0.602c-0.816,0-1.54-0.135-2.17-0.404v-1.348
			c0.292,0.146,0.612,0.267,0.962,0.358c0.35,0.093,0.696,0.139,1.039,0.139c0.524,0,0.912-0.089,1.162-0.267
			s0.375-0.463,0.375-0.855c0-0.352-0.144-0.601-0.432-0.748c-0.288-0.146-0.748-0.22-1.378-0.22h-0.571v-1.215h0.581
			c0.583,0,1.009-0.075,1.278-0.228s0.404-0.412,0.404-0.781c0-0.567-0.357-0.851-1.07-0.851c-0.247,0-0.498,0.041-0.753,0.123
			s-0.539,0.224-0.851,0.425l-0.736-1.091c0.686-0.491,1.503-0.737,2.454-0.737c0.778,0,1.393,0.157,1.844,0.471
			c0.451,0.314,0.676,0.752,0.676,1.312c0,0.468-0.143,0.866-0.427,1.193c-0.285,0.328-0.684,0.554-1.199,0.677v0.03
			c0.607,0.075,1.066,0.259,1.378,0.551s0.468,0.686,0.468,1.181C21.152,25,20.89,25.562,20.365,25.963z M26.558,25.865
			c-0.452,0.466-1.08,0.699-1.882,0.699c-0.556,0-1.04-0.128-1.453-0.384c-0.413-0.257-0.732-0.631-0.957-1.122
			c-0.225-0.492-0.337-1.084-0.337-1.777c0-1.482,0.314-2.586,0.944-3.31c0.629-0.725,1.571-1.086,2.827-1.086
			c0.428,0,0.764,0.025,1.008,0.076v1.266c-0.306-0.068-0.607-0.103-0.906-0.103c-0.545,0-0.989,0.082-1.334,0.246
			s-0.603,0.406-0.774,0.728s-0.272,0.776-0.304,1.367h0.067c0.34-0.58,0.883-0.87,1.63-0.87c0.673,0,1.199,0.21,1.58,0.63
			c0.38,0.42,0.57,1.001,0.57,1.741C27.236,24.767,27.01,25.399,26.558,25.865z M32.563,25.622
			c-0.431,0.628-1.094,0.942-1.988,0.942c-0.867,0-1.521-0.324-1.962-0.974c-0.44-0.648-0.661-1.606-0.661-2.874
			c0-1.321,0.215-2.295,0.643-2.922c0.429-0.627,1.089-0.94,1.98-0.94c0.867,0,1.523,0.328,1.967,0.983
			c0.444,0.656,0.666,1.616,0.666,2.879C33.207,24.025,32.992,24.993,32.563,25.622z"/>
	</g>
</g>
</svg>
