<?xml version="1.0" encoding="utf-8"?>
<!-- Generator: Adobe Illustrator 16.0.0, SVG Export Plug-In . SVG Version: 6.00 Build 0)  -->
<!DOCTYPE svg PUBLIC "-//W3C//DTD SVG 1.1//EN" "http://www.w3.org/Graphics/SVG/1.1/DTD/svg11.dtd">
<svg version="1.1" id="Shape_4_1_" xmlns="http://www.w3.org/2000/svg" xmlns:xlink="http://www.w3.org/1999/xlink" x="0px" y="0px"
	 width="50px" height="50px" viewBox="0 0 50 50" enable-background="new 0 0 50 50" xml:space="preserve">
<g id="Shape_4">
	<g>
		<path fill-rule="evenodd" clip-rule="evenodd" fill="#2BABE2" d="M40.275,14.99c-4.231,0-30.549,0-30.549,0s-3.703,0-3.703,3.637
			c0,3.638,0,10.912,0,10.912s-0.529,5.456,3.703,5.456s10.183,0,10.183,0s0.265-5.456,4.628-5.456c4.629,0,4.629,5.456,4.629,5.456
			H39.35c0,0,4.629-0.52,4.629-4.547c0-4.026,0-11.821,0-11.821S44.508,14.99,40.275,14.99z M14.355,29.539
			c-2.556,0-4.628-2.035-4.628-4.547c0-2.511,2.072-4.547,4.628-4.547c2.557,0,4.629,2.036,4.629,4.547
			C18.984,27.504,16.912,29.539,14.355,29.539z M35.647,29.539c-2.557,0-4.629-2.035-4.629-4.547c0-2.511,2.072-4.547,4.629-4.547
			c2.556,0,4.628,2.036,4.628,4.547C40.275,27.504,38.203,29.539,35.647,29.539z"/>
	</g>
</g>
</svg>
