<?xml version="1.0" encoding="utf-8"?>
<!-- Generator: Adobe Illustrator 16.0.0, SVG Export Plug-In . SVG Version: 6.00 Build 0)  -->
<!DOCTYPE svg PUBLIC "-//W3C//DTD SVG 1.1 Basic//EN" "http://www.w3.org/Graphics/SVG/1.1/DTD/svg11-basic.dtd">
<svg version="1.1" baseProfile="basic" xmlns="http://www.w3.org/2000/svg" xmlns:xlink="http://www.w3.org/1999/xlink" x="0px"
	 y="0px" width="44.999px" height="44.299px" viewBox="0 0 44.999 44.299" xml:space="preserve">
<g id="Background_xA0_Image_1_">
</g>
<g id="Dimensión360">
</g>
<g id="Rounded_Rectangle_4_1_">
	<g id="Rounded_Rectangle_4">
		<path fill="#2BABE2" d="M44.424,3.389c-1.062-3.508-5.014-3.881-6.879-2.958L3.151,15.219c-0.983,0.448-3.949,1.659-2.948,3.944
			c0.942,2.152,3.892,1.314,4.913,0.986l36.359-8.873C44.563,10.285,45.84,8.069,44.424,3.389z"/>
	</g>
</g>
<g id="Rounded_Rectangle_4_copy_2_1_">
	<g id="Rounded_Rectangle_4_copy_2">
		<path fill="#FBEE23" d="M39.511,21.135l-28.498,2.958c-0.808,0.168-3.82,0.166-3.931,1.972c-0.074,1.214,1.556,1.903,3.178,2.107
			l28.466,1.904c2.859-0.082,5.272-0.505,5.698-4.011C44.851,22.553,42.687,20.833,39.511,21.135z"/>
	</g>
</g>
<g id="Rounded_Rectangle_4_copy_4_1_">
	<g id="Rounded_Rectangle_4_copy_4">
		<path fill="#EA0B8C" d="M30.764,36.959l-16.141-4.383c-0.366-0.045-1.543-0.563-1.991,0.436c-0.3,0.668,0.161,1.355,0.741,1.781
			l13.897,8.563c1.96,0.947,4.688,1.788,6.405-0.674C35.641,39.865,33.204,37.646,30.764,36.959z"/>
	</g>
</g>
<g id="Rounded_Rectangle_4_copy_3_1_">
	<g id="Rounded_Rectangle_4_copy_3">
		<path fill="#F58324" d="M35.377,32.289L16.69,30.108c-0.537-0.025-2.485-0.395-2.709,0.393c-0.15,0.529,0.847,1.034,1.878,1.324
			l18.258,4.332c1.857,0.314,3.454,0.422,4.024-1.08C38.713,33.571,37.457,32.543,35.377,32.289z"/>
	</g>
</g>
<g id="Rounded_Rectangle_4_copy_1_">
	<g id="Rounded_Rectangle_4_copy">
		<path fill="#1CB253" d="M42.348,15.559c-0.274-1.227-2.159-1.475-3.122-1.218l-28.429,5.956c-0.506,0.123-2.021,0.444-1.691,1.253
			c0.309,0.762,1.791,0.567,2.307,0.486l28.977-3.881C41.947,17.912,42.715,17.196,42.348,15.559z"/>
	</g>
</g>
</svg>
