<?xml version="1.0" encoding="utf-8"?>
<!-- Generator: Adobe Illustrator 16.0.0, SVG Export Plug-In . SVG Version: 6.00 Build 0)  -->
<!DOCTYPE svg PUBLIC "-//W3C//DTD SVG 1.1//EN" "http://www.w3.org/Graphics/SVG/1.1/DTD/svg11.dtd">
<svg version="1.1" id="Layer_1" xmlns="http://www.w3.org/2000/svg" xmlns:xlink="http://www.w3.org/1999/xlink" x="0px" y="0px"
	 width="550.639px" height="180.568px" viewBox="0 0 550.639 180.568" enable-background="new 0 0 550.639 180.568"
	 xml:space="preserve">
<g>
	<path fill="#F26522" d="M263.804,88.944l61.494-56.03c2.697-2.461,6.768-2.461,9.467,0l61.493,56.03
		c2.161,1.97,2.876,5.006,1.822,7.734c-1.058,2.726-3.63,4.489-6.554,4.489h-9.823v40.88c16.354-20.478,30.953-44.116,30.953-63.254
		c0-1.183-0.033-2.358-0.081-3.527c-0.018-0.441-0.043-0.882-0.066-1.317c-0.041-0.706-0.09-1.412-0.146-2.109
		c-0.042-0.539-0.083-1.077-0.136-1.61c-0.095-0.968-0.205-1.928-0.332-2.885C406.842,29.255,376.812,0,337.185,0
		c-43.516,0-75.471,35.277-75.471,78.793c0,3.491,0.511,7.135,1.403,10.879C263.328,89.418,263.554,89.172,263.804,88.944
		 M380.649,39.113c2.226,0,4.03,1.802,4.03,4.029v24.247l-31.1-28.276H380.649z"/>
</g>
<g>
	<path fill="#F26522" d="M64.537,142.468v-26.631c0-1.37-0.098-2.692-0.294-3.965c-0.195-1.272-0.555-2.365-1.077-3.28
		c-0.522-0.913-1.224-1.647-2.104-2.202c-0.881-0.554-2.041-0.833-3.476-0.833c-1.371,0-2.563,0.294-3.574,0.882
		c-1.013,0.587-1.859,1.37-2.545,2.35c-0.686,0.979-1.191,2.104-1.518,3.378c-0.327,1.272-0.489,2.595-0.489,3.965v26.337H33.403
		v-27.806c0-2.806-0.556-5.025-1.665-6.657c-1.11-1.631-2.873-2.448-5.287-2.448c-2.545,0-4.521,1.013-5.923,3.035
		c-1.404,2.024-2.105,4.504-2.105,7.441v26.435H2.269V93.71h15.567v6.756h0.195c0.588-1.043,1.322-2.056,2.203-3.035
		c0.881-0.979,1.941-1.843,3.182-2.595c1.239-0.749,2.627-1.354,4.161-1.811c1.533-0.456,3.215-0.686,5.043-0.686
		c3.524,0,6.511,0.719,8.958,2.154s4.356,3.492,5.728,6.168c1.631-2.546,3.721-4.568,6.266-6.07
		c2.546-1.501,5.646-2.252,9.302-2.252c3.328,0,6.119,0.604,8.371,1.812c2.251,1.208,4.063,2.774,5.434,4.699
		c1.37,1.926,2.365,4.08,2.986,6.462c0.619,2.383,0.93,4.716,0.93,7v30.155H64.537z"/>
	<path fill="#F26522" d="M108.301,78.144c0,1.24-0.244,2.398-0.734,3.476c-0.489,1.077-1.143,2.007-1.958,2.79
		c-0.816,0.783-1.796,1.404-2.938,1.86c-1.143,0.458-2.334,0.686-3.573,0.686c-2.611,0-4.797-0.864-6.56-2.595
		c-1.763-1.729-2.644-3.802-2.644-6.217c0-1.175,0.228-2.301,0.686-3.378c0.456-1.077,1.109-2.007,1.958-2.79
		c0.848-0.783,1.826-1.42,2.938-1.909c1.108-0.489,2.315-0.734,3.622-0.734c1.239,0,2.431,0.229,3.573,0.686
		c1.142,0.457,2.121,1.077,2.938,1.86c0.815,0.783,1.469,1.713,1.958,2.79C108.057,75.745,108.301,76.904,108.301,78.144z
		 M91.069,142.468V93.71h16.057v48.758H91.069z"/>
</g>
<g>
	<path fill="#6D6E71" d="M117.993,142.468V68.451h16.35v74.017H117.993z"/>
	<path fill="#6D6E71" d="M177.226,142.468v-6.756h-0.195c-0.588,1.111-1.355,2.154-2.301,3.134c-0.947,0.979-2.057,1.827-3.33,2.545
		c-1.271,0.719-2.676,1.305-4.209,1.763c-1.535,0.456-3.15,0.686-4.848,0.686c-3.264,0-6.021-0.588-8.272-1.763
		s-4.08-2.692-5.482-4.553c-1.404-1.86-2.416-3.98-3.035-6.364c-0.621-2.382-0.931-4.813-0.931-7.294V93.71h16.155v26.436
		c0,1.37,0.098,2.677,0.293,3.916c0.196,1.24,0.571,2.35,1.126,3.329c0.555,0.979,1.289,1.747,2.203,2.301
		c0.914,0.555,2.121,0.832,3.623,0.832c2.805,0,4.943-1.044,6.412-3.133s2.203-4.536,2.203-7.344V93.71h16.057v48.758H177.226z"/>
	<path fill="#6D6E71" d="M255.062,137.866c0,4.764-0.686,8.909-2.057,12.434c-1.37,3.525-3.297,6.445-5.776,8.763
		c-2.481,2.316-5.499,4.047-9.057,5.189c-3.558,1.142-7.489,1.713-11.797,1.713c-4.309,0-8.73-0.652-13.267-1.958
		c-4.537-1.306-8.469-3.198-11.798-5.679l8.028-11.454c2.35,2.088,4.944,3.638,7.783,4.65c2.84,1.011,5.63,1.518,8.371,1.518
		c4.7,0,8.176-1.241,10.428-3.721c2.251-2.481,3.377-5.776,3.377-9.889v-2.938h-0.293c-1.503,1.959-3.525,3.525-6.07,4.7
		c-2.546,1.175-5.451,1.762-8.714,1.762c-3.721,0-7.018-0.668-9.889-2.007c-2.873-1.337-5.304-3.148-7.294-5.434
		c-1.992-2.284-3.51-4.944-4.553-7.979c-1.045-3.035-1.566-6.249-1.566-9.644c0-3.394,0.521-6.624,1.566-9.693
		c1.043-3.066,2.561-5.776,4.553-8.126c1.99-2.35,4.421-4.226,7.294-5.63c2.871-1.402,6.135-2.104,9.791-2.104
		c3.067,0,6.004,0.621,8.812,1.86c2.806,1.24,5.058,3.166,6.755,5.776h0.196V93.71h15.176V137.866z M239.788,117.795
		c0-1.63-0.278-3.197-0.833-4.699c-0.555-1.501-1.354-2.822-2.398-3.965c-1.045-1.142-2.285-2.039-3.721-2.692
		c-1.436-0.652-3.068-0.979-4.895-0.979c-1.828,0-3.444,0.327-4.847,0.979c-1.404,0.653-2.595,1.534-3.573,2.644
		c-0.979,1.11-1.73,2.415-2.252,3.916c-0.523,1.502-0.783,3.101-0.783,4.797c0,1.633,0.26,3.199,0.783,4.7
		c0.521,1.502,1.272,2.824,2.252,3.965c0.979,1.143,2.169,2.057,3.573,2.741c1.402,0.686,3.019,1.028,4.847,1.028
		c1.826,0,3.476-0.343,4.944-1.028c1.468-0.685,2.707-1.581,3.72-2.692c1.012-1.108,1.795-2.414,2.35-3.916
		C239.51,121.092,239.788,119.493,239.788,117.795z"/>
	<path fill="#6D6E71" d="M265.242,100.368c2.871-2.741,6.217-4.798,10.035-6.168c3.818-1.371,7.718-2.057,11.699-2.057
		c4.112,0,7.588,0.507,10.428,1.518c2.839,1.013,5.14,2.579,6.902,4.7c1.762,2.121,3.05,4.797,3.867,8.028
		c0.815,3.23,1.224,7.065,1.224,11.504v24.574h-14.686v-5.189h-0.294c-1.241,2.024-3.118,3.591-5.63,4.7
		c-2.514,1.108-5.238,1.664-8.175,1.664c-1.958,0-3.982-0.262-6.07-0.783c-2.09-0.521-3.999-1.371-5.728-2.546
		c-1.73-1.175-3.149-2.741-4.259-4.699c-1.11-1.958-1.665-4.372-1.665-7.245c0-3.524,0.963-6.364,2.889-8.518
		c1.925-2.154,4.406-3.818,7.44-4.993c3.035-1.175,6.413-1.958,10.134-2.35s7.343-0.588,10.867-0.588v-0.783
		c0-2.414-0.849-4.193-2.545-5.336c-1.698-1.142-3.786-1.713-6.267-1.713c-2.285,0-4.488,0.489-6.608,1.468
		c-2.122,0.979-3.933,2.154-5.434,3.525L265.242,100.368z M294.712,121.222h-2.057c-1.762,0-3.541,0.083-5.336,0.245
		c-1.796,0.164-3.395,0.475-4.797,0.931c-1.404,0.457-2.563,1.125-3.476,2.007c-0.915,0.881-1.371,2.04-1.371,3.476
		c0,0.915,0.211,1.698,0.637,2.35c0.424,0.653,0.962,1.175,1.615,1.566c0.651,0.392,1.402,0.67,2.252,0.832
		c0.848,0.164,1.664,0.245,2.447,0.245c3.264,0,5.76-0.896,7.49-2.692c1.729-1.795,2.595-4.226,2.595-7.294V121.222z"/>
	<path fill="#6D6E71" d="M351.105,106.928c-0.719-0.195-1.42-0.326-2.104-0.392c-0.686-0.064-1.355-0.098-2.008-0.098
		c-2.153,0-3.965,0.392-5.434,1.172c-1.469,0.781-2.644,1.726-3.524,2.831c-0.881,1.107-1.518,2.312-1.909,3.613
		s-0.588,2.44-0.588,3.416v24.997h-16.057V93.769h15.47v7.049h0.195c1.239-2.496,3.002-4.534,5.287-6.111
		c2.284-1.577,4.928-2.366,7.931-2.366c0.651,0,1.288,0.033,1.909,0.098c0.619,0.065,1.126,0.164,1.518,0.294L351.105,106.928z"/>
</g>
<g>
	<path fill="#6D6E71" d="M4.95,180.568H2.803v-21.113H4.95V180.568z"/>
	<path fill="#6D6E71" d="M24.931,177.438h0.06v-17.982h2.147v21.113h-2.685l-12.286-18.161h-0.06v18.161H9.96v-21.113h2.685
		L24.931,177.438z"/>
	<path fill="#6D6E71" d="M42.614,176.93h0.03l7.067-17.475h3.28v21.113h-2.146v-18.34h-0.06l-7.635,18.34h-1.133l-7.635-18.34h-0.06
		v18.34h-2.147v-21.113h3.28L42.614,176.93z"/>
	<path fill="#6D6E71" d="M78.906,170.012c0,1.61-0.278,3.092-0.835,4.443c-0.557,1.353-1.327,2.52-2.311,3.504
		c-0.984,0.984-2.147,1.755-3.489,2.312c-1.342,0.556-2.799,0.835-4.369,0.835s-3.026-0.279-4.369-0.835
		c-1.342-0.557-2.505-1.327-3.488-2.312c-0.984-0.984-1.755-2.151-2.312-3.504c-0.557-1.352-0.835-2.833-0.835-4.443
		s0.278-3.092,0.835-4.443s1.327-2.521,2.312-3.504c0.983-0.984,2.146-1.755,3.488-2.312c1.343-0.557,2.799-0.835,4.369-0.835
		s3.027,0.278,4.369,0.835s2.505,1.327,3.489,2.312c0.983,0.983,1.754,2.152,2.311,3.504S78.906,168.401,78.906,170.012z
		 M76.641,170.026c0-1.23-0.199-2.401-0.597-3.514c-0.398-1.111-0.975-2.089-1.729-2.932c-0.756-0.844-1.676-1.514-2.759-2.01
		c-1.084-0.496-2.302-0.745-3.653-0.745c-1.353,0-2.569,0.249-3.653,0.745s-2.003,1.166-2.758,2.01
		c-0.756,0.843-1.333,1.82-1.73,2.932c-0.397,1.112-0.596,2.283-0.596,3.514c0,1.231,0.198,2.402,0.596,3.514
		s0.975,2.084,1.73,2.918c0.755,0.833,1.674,1.498,2.758,1.994s2.301,0.744,3.653,0.744c1.352,0,2.569-0.248,3.653-0.744
		c1.083-0.496,2.003-1.161,2.759-1.994c0.755-0.834,1.331-1.807,1.729-2.918C76.441,172.429,76.641,171.258,76.641,170.026z"/>
	<path fill="#6D6E71" d="M82.813,159.455h6.292c0.795,0,1.601,0.084,2.416,0.253c0.814,0.169,1.545,0.458,2.191,0.865
		c0.646,0.407,1.173,0.959,1.581,1.655c0.407,0.695,0.611,1.57,0.611,2.624c0,1.113-0.341,2.083-1.02,2.907
		c-0.68,0.825-1.589,1.367-2.729,1.626v0.06c1.369,0.159,2.505,0.69,3.407,1.595c0.903,0.905,1.354,2.133,1.354,3.684
		c0,0.875-0.184,1.675-0.551,2.4s-0.888,1.342-1.563,1.849s-1.498,0.9-2.47,1.178c-0.973,0.279-2.063,0.418-3.273,0.418h-6.249
		V159.455z M84.96,168.699h4.324c0.517,0,1.039-0.06,1.566-0.179c0.526-0.119,1.009-0.323,1.446-0.611
		c0.437-0.288,0.79-0.671,1.059-1.148c0.269-0.477,0.402-1.063,0.402-1.759c0-0.676-0.134-1.248-0.402-1.715
		s-0.632-0.851-1.089-1.148s-0.994-0.512-1.61-0.642c-0.616-0.129-1.272-0.193-1.968-0.193H84.96V168.699z M84.96,178.72h3.996
		c0.775,0,1.517-0.075,2.222-0.224c0.706-0.149,1.322-0.388,1.85-0.716c0.526-0.328,0.949-0.756,1.268-1.282
		c0.317-0.527,0.477-1.158,0.477-1.894c0-1.392-0.473-2.431-1.416-3.117c-0.944-0.686-2.281-1.028-4.012-1.028H84.96V178.72z"/>
	<path fill="#6D6E71" d="M103.359,180.568h-2.146v-21.113h2.146V180.568z"/>
	<path fill="#6D6E71" d="M110.546,178.66h9.842v1.908h-11.988v-21.113h2.146V178.66z"/>
	<path fill="#6D6E71" d="M125.188,180.568h-2.146v-21.113h2.146V180.568z"/>
	<path fill="#6D6E71" d="M130.079,180.568h-2.355l9.125-21.113h2.088l9.065,21.113h-2.386l-2.326-5.547h-10.915L130.079,180.568z
		 M133.181,173.054h9.305l-4.652-11.213L133.181,173.054z"/>
	<path fill="#6D6E71" d="M152.684,180.568h-2.146v-21.113h6.203c1.033,0,1.992,0.1,2.877,0.298c0.885,0.199,1.65,0.521,2.297,0.969
		c0.646,0.448,1.147,1.029,1.507,1.745c0.357,0.716,0.535,1.591,0.535,2.624c0,0.775-0.139,1.481-0.416,2.117
		c-0.279,0.637-0.656,1.188-1.134,1.655c-0.478,0.468-1.044,0.84-1.7,1.118c-0.656,0.279-1.372,0.458-2.147,0.537l6.173,10.05
		h-2.623l-5.846-9.871h-3.579V180.568z M152.684,168.849h3.729c1.729,0,3.061-0.313,3.996-0.939
		c0.934-0.626,1.401-1.565,1.401-2.818c0-0.695-0.13-1.282-0.388-1.76c-0.259-0.477-0.616-0.864-1.073-1.162
		c-0.458-0.299-1.015-0.518-1.671-0.656c-0.655-0.14-1.382-0.209-2.177-0.209h-3.817V168.849z"/>
	<path fill="#6D6E71" d="M169.98,180.568h-2.146v-21.113h2.146V180.568z"/>
	<path fill="#6D6E71" d="M195.866,170.012c0,1.61-0.279,3.092-0.835,4.443c-0.558,1.353-1.327,2.52-2.312,3.504
		s-2.147,1.755-3.489,2.312c-1.342,0.556-2.799,0.835-4.369,0.835s-3.026-0.279-4.368-0.835c-1.343-0.557-2.506-1.327-3.489-2.312
		c-0.984-0.984-1.755-2.151-2.312-3.504c-0.557-1.352-0.835-2.833-0.835-4.443s0.278-3.092,0.835-4.443s1.327-2.521,2.312-3.504
		c0.983-0.984,2.146-1.755,3.489-2.312c1.342-0.557,2.798-0.835,4.368-0.835s3.027,0.278,4.369,0.835s2.505,1.327,3.489,2.312
		c0.984,0.983,1.754,2.152,2.312,3.504C195.587,166.92,195.866,168.401,195.866,170.012z M193.6,170.026
		c0-1.23-0.199-2.401-0.597-3.514c-0.397-1.111-0.975-2.089-1.729-2.932c-0.756-0.844-1.675-1.514-2.759-2.01
		s-2.301-0.745-3.653-0.745c-1.352,0-2.569,0.249-3.652,0.745c-1.084,0.496-2.004,1.166-2.759,2.01
		c-0.756,0.843-1.332,1.82-1.729,2.932c-0.398,1.112-0.597,2.283-0.597,3.514c0,1.231,0.198,2.402,0.597,3.514
		c0.397,1.111,0.974,2.084,1.729,2.918c0.755,0.833,1.675,1.498,2.759,1.994c1.083,0.496,2.301,0.744,3.652,0.744
		c1.353,0,2.569-0.248,3.653-0.744s2.003-1.161,2.759-1.994c0.755-0.834,1.332-1.807,1.729-2.918S193.6,171.258,193.6,170.026z"/>
</g>
<g id="Ellipse_2_copy_3">
	<g>
		<path fill-rule="evenodd" clip-rule="evenodd" fill="#6E6F72" d="M433.26,119.959v27.705c0,0,14.491,5.541,34.42,5.541
			c19.927,0,38.042-5.541,38.042-5.541v-27.705c0,0-13.284-5.54-36.23-5.54C446.544,114.419,433.26,119.959,433.26,119.959z
			 M530.699,114.419c-10.487,0-18.989,8.683-18.989,19.393c0,10.71,8.502,19.393,18.989,19.393s18.988-8.683,18.988-19.393
			C549.688,123.102,541.187,114.419,530.699,114.419z"/>
	</g>
</g>
<g id="_x33_60">
	<g>
		<path fill-rule="evenodd" clip-rule="evenodd" fill="#E8E8E8" d="M457.256,133.285v-0.07c1.151-0.276,2.049-0.782,2.686-1.519
			c0.638-0.736,0.955-1.631,0.955-2.681c0-1.259-0.505-2.241-1.516-2.947c-1.011-0.706-2.387-1.059-4.133-1.059
			c-2.128,0-3.96,0.552-5.496,1.657l1.647,2.452c0.698-0.453,1.335-0.771,1.907-0.956c0.573-0.184,1.136-0.276,1.688-0.276
			c1.599,0,2.399,0.638,2.399,1.911c0,0.829-0.303,1.414-0.905,1.756c-0.604,0.341-1.559,0.512-2.865,0.512h-1.304v2.728h1.28
			c1.414,0,2.442,0.165,3.09,0.495c0.646,0.33,0.968,0.891,0.968,1.681c0,0.882-0.279,1.522-0.841,1.922
			c-0.562,0.398-1.431,0.599-2.604,0.599c-0.77,0-1.546-0.104-2.329-0.312c-0.784-0.207-1.504-0.475-2.157-0.805v3.026
			c1.415,0.606,3.036,0.909,4.864,0.909c2.184,0,3.861-0.45,5.037-1.352c1.176-0.902,1.764-2.162,1.764-3.78
			c0-1.113-0.35-1.998-1.05-2.653C459.645,133.866,458.616,133.453,457.256,133.285z M470.21,131.143
			c-1.674,0-2.892,0.653-3.652,1.958h-0.15c0.068-1.328,0.294-2.352,0.681-3.073c0.384-0.721,0.963-1.266,1.734-1.634
			c0.771-0.369,1.77-0.553,2.991-0.553c0.669,0,1.345,0.077,2.028,0.23v-2.843c-0.546-0.116-1.298-0.173-2.26-0.173
			c-2.812,0-4.924,0.813-6.334,2.44c-1.41,1.626-2.114,4.104-2.114,7.435c0,1.558,0.25,2.889,0.755,3.993
			c0.504,1.105,1.219,1.946,2.144,2.521c0.925,0.576,2.013,0.863,3.256,0.863c1.798,0,3.206-0.524,4.22-1.57
			c1.014-1.048,1.521-2.469,1.521-4.265c0-1.665-0.426-2.969-1.278-3.913S471.717,131.143,470.21,131.143z M470.973,138.7
			c-0.407,0.51-0.991,0.766-1.754,0.766c-0.737,0-1.347-0.315-1.825-0.944c-0.481-0.629-0.721-1.4-0.721-2.313
			c0-0.621,0.256-1.167,0.767-1.634c0.51-0.468,1.127-0.702,1.849-0.702c0.77,0,1.344,0.236,1.725,0.708
			c0.379,0.473,0.569,1.119,0.569,1.94C471.582,137.462,471.38,138.189,470.973,138.7z M486.921,127.196
			c-0.997-1.474-2.466-2.21-4.412-2.21c-1.996,0-3.476,0.704-4.437,2.112c-0.961,1.408-1.44,3.595-1.44,6.566
			c0,2.847,0.494,4.998,1.481,6.457c0.986,1.458,2.453,2.187,4.396,2.187c2.008,0,3.491-0.706,4.456-2.117s1.447-3.587,1.447-6.526
			C488.412,130.825,487.913,128.669,486.921,127.196z M484.308,138.083c-0.367,0.905-0.968,1.358-1.799,1.358
			c-0.846,0-1.445-0.446-1.801-1.341c-0.36-0.894-0.537-2.372-0.537-4.437s0.179-3.546,0.541-4.448
			c0.361-0.902,0.96-1.353,1.797-1.353c0.824,0,1.42,0.451,1.793,1.353s0.561,2.384,0.561,4.448
			C484.862,135.706,484.677,137.179,484.308,138.083z"/>
	</g>
</g>
<g id="Shape_1">
	<g>
		<polygon fill="#F26724" points="546.146,117.403 529.677,133.812 523.689,127.846 519.196,132.321 529.677,142.762 
			550.639,121.878 		"/>
	</g>
</g>
</svg>
