<?xml version="1.0" encoding="utf-8"?>
<!-- Generator: Adobe Illustrator 16.0.0, SVG Export Plug-In . SVG Version: 6.00 Build 0)  -->
<!DOCTYPE svg PUBLIC "-//W3C//DTD SVG 1.1//EN" "http://www.w3.org/Graphics/SVG/1.1/DTD/svg11.dtd">
<svg version="1.1" id="Layer_1" xmlns="http://www.w3.org/2000/svg" xmlns:xlink="http://www.w3.org/1999/xlink" x="0px" y="0px"
	 width="596.669px" height="120.777px" viewBox="-405.171 0 596.669 120.777" enable-background="new -405.171 0 596.669 120.777"
	 xml:space="preserve">
<g>
	<path fill="#F26522" d="M98.125,58.169l38.575-35.148c1.691-1.543,4.246-1.543,5.939,0l38.574,35.148
		c1.355,1.235,1.804,3.14,1.143,4.851c-0.664,1.71-2.276,2.815-4.111,2.815h-6.162V91.48c10.258-12.846,19.417-27.674,19.417-39.679
		c0-0.742-0.021-1.479-0.05-2.212c-0.012-0.276-0.027-0.554-0.042-0.827c-0.025-0.442-0.057-0.885-0.092-1.323
		c-0.027-0.338-0.052-0.675-0.085-1.009c-0.06-0.607-0.129-1.209-0.208-1.81c-3.17-23.894-22.007-42.245-46.865-42.245
		c-27.297,0-47.342,22.129-47.342,49.426c0,2.19,0.32,4.476,0.88,6.824C97.827,58.466,97.968,58.312,98.125,58.169 M171.42,26.91
		c1.396,0,2.528,1.131,2.528,2.527v15.211L154.439,26.91H171.42z"/>
</g>
<g>
	<path fill="#F26522" d="M-26.875,91.743V75.039c0-0.86-0.062-1.689-0.184-2.487c-0.123-0.798-0.349-1.484-0.676-2.058
		c-0.327-0.572-0.768-1.033-1.32-1.38c-0.553-0.349-1.281-0.523-2.18-0.523c-0.86,0-1.608,0.185-2.242,0.554
		c-0.636,0.368-1.166,0.859-1.597,1.474c-0.43,0.614-0.747,1.32-0.952,2.118c-0.205,0.799-0.307,1.629-0.307,2.488v16.521h-10.073
		V74.302c0-1.76-0.348-3.151-1.044-4.176c-0.697-1.024-1.802-1.536-3.316-1.536c-1.597,0-2.836,0.636-3.716,1.904
		c-0.881,1.27-1.321,2.826-1.321,4.668v16.582h-10.133V61.158h9.765v4.238h0.122c0.369-0.654,0.83-1.289,1.382-1.903
		c0.552-0.615,1.218-1.157,1.996-1.628c0.777-0.47,1.648-0.849,2.61-1.136c0.961-0.286,2.016-0.431,3.164-0.431
		c2.21,0,4.084,0.452,5.619,1.352c1.536,0.9,2.733,2.19,3.593,3.869c1.023-1.597,2.334-2.866,3.931-3.809
		c1.597-0.941,3.541-1.412,5.834-1.412c2.088,0,3.839,0.379,5.251,1.137c1.412,0.758,2.548,1.74,3.409,2.948
		c0.859,1.208,1.483,2.559,1.873,4.053c0.388,1.495,0.583,2.958,0.583,4.391v18.916H-26.875L-26.875,91.743z"/>
	<path fill="#F26522" d="M0.578,51.394c0,0.777-0.152,1.504-0.459,2.181c-0.307,0.676-0.718,1.259-1.229,1.75
		c-0.511,0.491-1.126,0.881-1.842,1.167c-0.717,0.287-1.465,0.43-2.242,0.43c-1.638,0-3.009-0.542-4.115-1.627
		c-1.106-1.084-1.659-2.384-1.659-3.9c0-0.737,0.143-1.444,0.431-2.119c0.285-0.676,0.695-1.259,1.228-1.75
		c0.532-0.492,1.145-0.891,1.842-1.198c0.696-0.306,1.453-0.46,2.272-0.46c0.776,0,1.525,0.144,2.242,0.43
		c0.716,0.287,1.331,0.676,1.842,1.167c0.511,0.491,0.922,1.075,1.229,1.75C0.425,49.889,0.578,50.616,0.578,51.394z
		 M-10.231,91.743V61.158h10.072v30.585H-10.231z"/>
</g>
<g>
	<path fill="#FFFFFF" d="M6.658,91.743v-46.43h10.255v46.43H6.658z"/>
	<path fill="#FFFFFF" d="M43.815,91.743v-4.237h-0.123c-0.369,0.697-0.85,1.351-1.443,1.967c-0.594,0.614-1.29,1.145-2.089,1.597
		c-0.797,0.451-1.678,0.818-2.64,1.105c-0.963,0.285-1.976,0.43-3.041,0.43c-2.048,0-3.778-0.368-5.189-1.106
		c-1.412-0.736-2.559-1.688-3.438-2.855c-0.881-1.167-1.516-2.496-1.903-3.992c-0.39-1.495-0.584-3.02-0.584-4.576V61.158h10.134
		v16.584c0,0.859,0.062,1.679,0.184,2.456c0.123,0.777,0.357,1.474,0.706,2.088c0.348,0.614,0.809,1.096,1.382,1.444
		c0.573,0.347,1.33,0.522,2.273,0.522c1.759,0,3.1-0.655,4.022-1.966c0.92-1.311,1.382-2.845,1.382-4.606V61.158h10.072v30.585
		H43.815z"/>
	<path fill="#FFFFFF" d="M92.641,88.857c0,2.989-0.431,5.588-1.291,7.8c-0.859,2.212-2.068,4.043-3.623,5.497
		c-1.557,1.452-3.449,2.538-5.682,3.255s-4.698,1.075-7.4,1.075c-2.703,0-5.476-0.41-8.322-1.229
		c-2.846-0.818-5.312-2.006-7.4-3.562l5.036-7.186c1.474,1.311,3.101,2.284,4.882,2.917c1.782,0.634,3.531,0.953,5.251,0.953
		c2.948,0,5.129-0.779,6.541-2.335c1.412-1.557,2.118-3.623,2.118-6.203v-1.844h-0.183c-0.943,1.229-2.212,2.212-3.809,2.949
		c-1.596,0.737-3.419,1.104-5.465,1.104c-2.334,0-4.402-0.419-6.203-1.258c-1.802-0.839-3.327-1.976-4.576-3.41
		c-1.25-1.433-2.202-3.101-2.856-5.005c-0.655-1.903-0.982-3.92-0.982-6.049s0.327-4.155,0.982-6.08
		c0.655-1.924,1.607-3.624,2.856-5.098c1.249-1.474,2.773-2.65,4.576-3.531c1.801-0.879,3.848-1.32,6.142-1.32
		c1.924,0,3.766,0.39,5.526,1.167c1.761,0.778,3.174,1.987,4.239,3.624h0.122v-3.931h9.52L92.641,88.857L92.641,88.857z
		 M83.059,76.267c0-1.022-0.175-2.005-0.522-2.947c-0.348-0.942-0.849-1.771-1.504-2.488c-0.656-0.717-1.434-1.279-2.334-1.688
		c-0.9-0.409-1.925-0.614-3.071-0.614s-2.16,0.206-3.04,0.614c-0.881,0.409-1.628,0.962-2.242,1.659
		c-0.613,0.696-1.085,1.515-1.412,2.457c-0.328,0.941-0.491,1.945-0.491,3.009c0,1.024,0.163,2.007,0.491,2.949
		c0.327,0.942,0.798,1.771,1.412,2.486c0.615,0.717,1.361,1.291,2.242,1.719c0.879,0.432,1.894,0.646,3.04,0.646
		s2.181-0.215,3.101-0.646c0.921-0.429,1.698-0.99,2.334-1.688c0.634-0.694,1.126-1.514,1.474-2.456
		C82.884,78.335,83.059,77.332,83.059,76.267z"/>
	<path fill="#FFFFFF" d="M99.026,65.335c1.801-1.72,3.9-3.009,6.294-3.87c2.396-0.859,4.842-1.29,7.34-1.29
		c2.579,0,4.76,0.318,6.541,0.952c1.78,0.635,3.224,1.618,4.33,2.949c1.105,1.33,1.913,3.009,2.425,5.037
		c0.512,2.025,0.769,4.43,0.769,7.216v15.415h-9.212v-3.254h-0.185c-0.779,1.268-1.956,2.252-3.531,2.947
		c-1.577,0.695-3.286,1.044-5.129,1.044c-1.228,0-2.498-0.164-3.808-0.49c-1.311-0.327-2.508-0.859-3.592-1.599
		c-1.086-0.736-1.976-1.719-2.672-2.947c-0.696-1.228-1.043-2.743-1.043-4.545c0-2.21,0.604-3.992,1.812-5.343
		c1.207-1.351,2.764-2.396,4.667-3.132c1.904-0.737,4.023-1.228,6.358-1.474c2.333-0.246,4.605-0.369,6.817-0.369v-0.49
		c0-1.514-0.533-2.63-1.597-3.348c-1.065-0.716-2.375-1.074-3.932-1.074c-1.433,0-2.814,0.307-4.144,0.921
		c-1.332,0.614-2.468,1.351-3.41,2.211L99.026,65.335z M117.513,78.416h-1.291c-1.105,0-2.221,0.053-3.347,0.153
		c-1.126,0.103-2.13,0.299-3.009,0.585c-0.88,0.286-1.607,0.706-2.18,1.258c-0.574,0.553-0.86,1.281-0.86,2.181
		c0,0.574,0.132,1.066,0.4,1.475c0.266,0.409,0.603,0.737,1.013,0.982c0.408,0.246,0.879,0.42,1.413,0.521
		c0.532,0.103,1.043,0.154,1.535,0.154c2.048,0,3.612-0.562,4.698-1.688c1.084-1.126,1.628-2.652,1.628-4.576L117.513,78.416
		L117.513,78.416z"/>
	<path fill="#FFFFFF" d="M152.887,69.45c-0.451-0.123-0.891-0.205-1.319-0.246c-0.43-0.04-0.849-0.062-1.26-0.062
		c-1.351,0-2.487,0.246-3.409,0.735c-0.922,0.491-1.659,1.083-2.21,1.776c-0.552,0.694-0.953,1.45-1.198,2.267
		c-0.244,0.815-0.368,1.53-0.368,2.142v15.681h-10.072V61.195h9.704v4.423h0.123c0.777-1.566,1.883-2.845,3.315-3.834
		c1.434-0.99,3.092-1.484,4.977-1.484c0.406,0,0.807,0.021,1.196,0.062c0.388,0.04,0.707,0.103,0.952,0.184L152.887,69.45z"/>
</g>
<g>
	<path fill="#FFFFFF" d="M-64.253,115.643H-65.6V102.4h1.347V115.643z"/>
	<path fill="#FFFFFF" d="M-51.72,113.68h0.039V102.4h1.346v13.243h-1.684l-7.707-11.392h-0.038v11.392h-1.347V102.4h1.684
		L-51.72,113.68z"/>
	<path fill="#FFFFFF" d="M-40.627,113.363h0.019l4.434-10.963h2.058v13.243h-1.347v-11.505h-0.037l-4.79,11.505h-0.711l-4.79-11.505
		h-0.037v11.505h-1.347V102.4h2.058L-40.627,113.363z"/>
	<path fill="#FFFFFF" d="M-17.861,109.021c0,1.01-0.174,1.94-0.523,2.788c-0.35,0.849-0.833,1.581-1.451,2.198
		c-0.616,0.616-1.346,1.1-2.188,1.449c-0.842,0.35-1.756,0.524-2.74,0.524c-0.985,0-1.899-0.175-2.741-0.524
		c-0.842-0.35-1.572-0.832-2.188-1.449c-0.618-0.617-1.101-1.35-1.451-2.198c-0.35-0.849-0.524-1.778-0.524-2.788
		c0-1.009,0.174-1.938,0.524-2.786c0.35-0.848,0.833-1.582,1.451-2.198c0.616-0.617,1.346-1.101,2.188-1.449
		c0.842-0.35,1.756-0.525,2.741-0.525c0.984,0,1.898,0.176,2.74,0.525c0.841,0.349,1.571,0.831,2.188,1.449
		c0.618,0.616,1.101,1.35,1.451,2.198C-18.036,107.083-17.861,108.011-17.861,109.021z M-19.282,109.031
		c0-0.771-0.125-1.506-0.375-2.205c-0.25-0.695-0.611-1.311-1.084-1.838c-0.474-0.53-1.051-0.95-1.731-1.262
		s-1.444-0.467-2.292-0.467c-0.849,0-1.612,0.155-2.292,0.467c-0.68,0.312-1.257,0.731-1.73,1.262
		c-0.474,0.527-0.835,1.142-1.085,1.838c-0.249,0.698-0.374,1.433-0.374,2.205s0.124,1.506,0.374,2.205
		c0.25,0.697,0.612,1.306,1.085,1.83c0.474,0.521,1.05,0.938,1.73,1.25c0.68,0.312,1.443,0.466,2.292,0.466s1.612-0.154,2.292-0.466
		s1.257-0.729,1.731-1.25c0.473-0.524,0.834-1.133,1.084-1.83C-19.407,110.538-19.282,109.803-19.282,109.031z"/>
	<path fill="#FFFFFF" d="M-15.41,102.4h3.947c0.499,0,1.004,0.052,1.515,0.158c0.511,0.105,0.969,0.287,1.375,0.543
		c0.406,0.255,0.736,0.601,0.992,1.037c0.255,0.437,0.383,0.986,0.383,1.646c0,0.699-0.214,1.308-0.639,1.824
		c-0.427,0.518-0.997,0.857-1.712,1.02v0.039c0.859,0.1,1.572,0.432,2.137,1c0.566,0.567,0.85,1.337,0.85,2.311
		c0,0.549-0.116,1.05-0.346,1.505s-0.558,0.843-0.98,1.159c-0.423,0.319-0.939,0.565-1.549,0.74
		c-0.611,0.175-1.294,0.261-2.054,0.261h-3.919V102.4H-15.41z M-14.063,108.198h2.712c0.324,0,0.652-0.037,0.983-0.111
		c0.33-0.075,0.632-0.202,0.906-0.384c0.275-0.182,0.496-0.422,0.665-0.72c0.168-0.3,0.252-0.668,0.252-1.104
		c0-0.424-0.084-0.782-0.252-1.075c-0.168-0.292-0.397-0.532-0.684-0.72c-0.286-0.188-0.623-0.322-1.01-0.403
		c-0.386-0.081-0.798-0.121-1.233-0.121h-2.339V108.198z M-14.063,114.484h2.507c0.486,0,0.952-0.047,1.394-0.141
		c0.442-0.093,0.829-0.243,1.16-0.448c0.33-0.205,0.595-0.474,0.795-0.805c0.199-0.33,0.3-0.727,0.3-1.187
		c0-0.875-0.297-1.527-0.888-1.957c-0.592-0.431-1.431-0.645-2.517-0.645h-2.751V114.484z"/>
	<path fill="#FFFFFF" d="M-2.522,115.643h-1.346V102.4h1.346V115.643z"/>
	<path fill="#FFFFFF" d="M1.987,114.448H8.16v1.195h-7.52V102.4h1.346V114.448z"/>
	<path fill="#FFFFFF" d="M11.171,115.643H9.825V102.4h1.346V115.643z"/>
	<path fill="#FFFFFF" d="M14.24,115.643h-1.478l5.724-13.243h1.31l5.686,13.243h-1.497l-1.459-3.479h-6.847L14.24,115.643z
		 M16.186,110.93h5.836l-2.918-7.035L16.186,110.93z"/>
	<path fill="#FFFFFF" d="M28.419,115.643h-1.346V102.4h3.891c0.647,0,1.249,0.062,1.805,0.188c0.555,0.124,1.035,0.327,1.44,0.607
		c0.405,0.28,0.719,0.645,0.945,1.093c0.224,0.451,0.336,1,0.336,1.647c0,0.487-0.087,0.929-0.261,1.328
		c-0.175,0.399-0.412,0.745-0.711,1.037c-0.3,0.295-0.655,0.527-1.066,0.701c-0.412,0.177-0.862,0.289-1.348,0.338l3.873,6.304
		h-1.646l-3.667-6.19H28.42L28.419,115.643L28.419,115.643z M28.419,108.293h2.339c1.085,0,1.92-0.196,2.507-0.589
		c0.585-0.393,0.878-0.982,0.878-1.769c0-0.436-0.081-0.804-0.243-1.104c-0.162-0.299-0.386-0.542-0.673-0.729
		c-0.287-0.187-0.637-0.323-1.048-0.41c-0.411-0.088-0.867-0.133-1.365-0.133h-2.395V108.293z"/>
	<path fill="#FFFFFF" d="M39.269,115.643h-1.346V102.4h1.346V115.643z"/>
	<path fill="#FFFFFF" d="M55.507,109.021c0,1.01-0.175,1.94-0.524,2.788c-0.35,0.849-0.833,1.581-1.451,2.198
		c-0.618,0.616-1.347,1.1-2.188,1.449s-1.755,0.524-2.741,0.524c-0.984,0-1.897-0.175-2.739-0.524
		c-0.843-0.35-1.573-0.832-2.19-1.449c-0.616-0.617-1.1-1.35-1.45-2.198c-0.349-0.849-0.523-1.778-0.523-2.788
		c0-1.009,0.174-1.938,0.523-2.786c0.35-0.848,0.833-1.582,1.45-2.198c0.617-0.617,1.347-1.101,2.19-1.449
		c0.842-0.35,1.755-0.525,2.739-0.525c0.985,0,1.899,0.176,2.741,0.525c0.842,0.349,1.572,0.831,2.188,1.449
		c0.618,0.616,1.101,1.35,1.451,2.198C55.332,107.083,55.507,108.011,55.507,109.021z M54.085,109.031
		c0-0.771-0.125-1.506-0.374-2.205c-0.25-0.695-0.612-1.311-1.084-1.838c-0.475-0.53-1.051-0.95-1.731-1.262
		c-0.679-0.312-1.443-0.467-2.292-0.467c-0.848,0-1.611,0.155-2.291,0.467c-0.68,0.312-1.257,0.731-1.73,1.262
		c-0.475,0.527-0.836,1.142-1.084,1.838c-0.25,0.698-0.375,1.433-0.375,2.205s0.125,1.506,0.375,2.205
		c0.249,0.697,0.611,1.306,1.084,1.83c0.474,0.521,1.05,0.938,1.73,1.25c0.679,0.312,1.443,0.466,2.291,0.466
		c0.849,0,1.613-0.154,2.292-0.466c0.681-0.312,1.256-0.729,1.731-1.25c0.473-0.524,0.835-1.133,1.084-1.83
		C53.96,110.538,54.085,109.803,54.085,109.031z"/>
</g>
<g>
	<path fill="#BE202B" stroke="#FFFFFF" stroke-miterlimit="10" d="M-340.74,2.375c33.832,0,61.426,26.388,61.426,58.739
		c0,32.367-27.592,58.747-61.426,58.747c-33.836,0-61.432-26.38-61.432-58.747C-402.172,28.764-374.576,2.375-340.74,2.375"/>
	<path fill="#FFFFFF" d="M-330.141,26.304c24.113,0,43.785,18.889,43.785,42.025c0,23.144-19.671,42.024-43.785,42.024
		c-24.119,0-43.783-18.88-43.783-42.024C-373.925,45.191-354.261,26.304-330.141,26.304"/>
	<polygon fill="#010101" points="-339.346,36.301 -329.604,36.301 -329.604,42.319 -339.346,47.951 	"/>
	<polygon fill="#BE202B" points="-339.366,47.951 -319.996,36.622 -300.619,48.036 -300.702,59.586 -319.996,47.667 
		-339.366,59.043 	"/>
	<path fill="#010101" d="M-326.341,91.469v-6.267c0,0-1.844,0.209-1.844-2.812V69.202c0-2.995,1.844-2.813,1.844-2.813v-6.268
		h-13.032v6.268c0,0,1.837-0.182,1.837,2.813V82.39c0,3.021-1.837,2.812-1.837,2.812v6.267H-326.341z"/>
	<path fill="#010101" d="M-311.356,85.086c0,0-1.897,0.176-1.897-2.717V69.201c0-2.774,1.339-2.813,1.339-2.813v-6.267h-11.989
		v6.267c0,0,2.273-0.182,2.273,2.813v15.288c0,0-0.632,7.4,9.74,7.4c9.463,0,9.355-7.4,9.355-7.4V69.201
		c0-2.995,1.835-2.813,1.835-2.813v-6.267h-10.074v6.267c0,0,1.349,0.04,1.349,2.813v13.167
		C-309.426,85.262-311.356,85.086-311.356,85.086"/>
	<path fill="#010101" d="M-346.552,60.121h4.478v13.237h-7.234v-4.911c0,0,0.152-1.654-1.194-1.654
		c-1.246,0-1.186,1.641-1.186,1.641v13.828c0,0-0.061,1.644,1.186,1.644c1.346,0,1.194-1.667,1.194-1.667v-5.858h7.234v6.104
		c0,0,0.16,9.267-9.197,9.267c-9.639,0-10.662-12.694-10.662-14.726c0-2.042-0.23-12.455,5.449-16.484c0,0,4.012-3.104,9.178,0.176
		L-346.552,60.121z"/>
	<g>
		<path fill="#FFFFFF" d="M-237.288,31.871l2.429,0.646c-0.509,2.1-1.427,3.701-2.748,4.802c-1.321,1.102-2.937,1.654-4.85,1.654
			c-1.977,0-3.582-0.423-4.823-1.271c-1.239-0.848-2.18-2.075-2.827-3.681c-0.648-1.607-0.971-3.333-0.971-5.177
			c0-2.01,0.365-3.764,1.095-5.261c0.729-1.495,1.771-2.635,3.118-3.411c1.346-0.777,2.83-1.166,4.45-1.166
			c1.832,0,3.377,0.492,4.628,1.476c1.251,0.983,2.123,2.367,2.617,4.148l-2.39,0.592c-0.427-1.404-1.043-2.428-1.852-3.068
			c-0.809-0.642-1.828-0.961-3.053-0.961c-1.409,0-2.589,0.356-3.536,1.067c-0.949,0.71-1.612,1.665-1.997,2.865
			c-0.382,1.198-0.574,2.435-0.574,3.708c0,1.643,0.227,3.075,0.682,4.3c0.453,1.225,1.162,2.141,2.121,2.746
			c0.959,0.606,1.997,0.91,3.114,0.91c1.362,0,2.513-0.413,3.454-1.238C-238.26,34.721-237.619,33.496-237.288,31.871z"/>
		<path fill="#FFFFFF" d="M-223.229,36.916c-0.835,0.747-1.639,1.273-2.41,1.58c-0.772,0.31-1.599,0.461-2.482,0.461
			c-1.461,0-2.583-0.374-3.366-1.125c-0.785-0.751-1.178-1.71-1.178-2.878c0-0.687,0.147-1.312,0.446-1.877
			c0.294-0.566,0.682-1.021,1.164-1.364c0.479-0.343,1.019-0.6,1.62-0.777c0.443-0.123,1.109-0.241,2.001-0.356
			c1.819-0.228,3.157-0.5,4.019-0.815c0.008-0.325,0.01-0.532,0.01-0.62c0-0.966-0.211-1.647-0.638-2.042
			c-0.574-0.534-1.432-0.804-2.566-0.804c-1.059,0-1.841,0.197-2.345,0.586c-0.505,0.392-0.879,1.083-1.119,2.075l-2.203-0.315
			c0.2-0.991,0.53-1.793,0.988-2.403c0.458-0.61,1.123-1.081,1.989-1.41c0.866-0.328,1.873-0.494,3.016-0.494
			c1.132,0,2.054,0.142,2.766,0.423c0.709,0.282,1.23,0.636,1.562,1.061c0.335,0.425,0.569,0.964,0.702,1.612
			c0.075,0.405,0.112,1.133,0.112,2.187v3.161c0,2.207,0.048,3.599,0.146,4.183c0.094,0.585,0.284,1.146,0.569,1.679h-2.352
			C-223.012,38.149-223.163,37.573-223.229,36.916z M-223.416,31.62c-0.818,0.352-2.044,0.649-3.681,0.896
			c-0.924,0.14-1.58,0.299-1.965,0.475c-0.381,0.177-0.68,0.432-0.887,0.77c-0.209,0.339-0.313,0.714-0.313,1.126
			c0,0.633,0.227,1.159,0.683,1.581c0.457,0.422,1.12,0.633,1.997,0.633c0.868,0,1.638-0.198,2.315-0.599
			c0.675-0.4,1.169-0.945,1.49-1.641c0.244-0.534,0.365-1.324,0.365-2.371v-0.87H-223.416z M-227.797,22.913l1.666-3.687h2.953
			l-2.753,3.687H-227.797z"/>
		<path fill="#FFFFFF" d="M-217.392,38.64V24.652h2.013v1.962c0.42-0.686,0.974-1.236,1.666-1.653
			c0.693-0.417,1.48-0.626,2.365-0.626c0.984,0,1.791,0.216,2.421,0.646c0.63,0.43,1.075,1.034,1.333,1.805
			c1.051-1.633,2.418-2.45,4.104-2.45c1.317,0,2.332,0.385,3.04,1.152c0.709,0.769,1.063,1.952,1.063,3.551v9.602h-2.241v-8.812
			c0-0.948-0.071-1.63-0.218-2.048c-0.144-0.417-0.411-0.752-0.793-1.008c-0.385-0.253-0.834-0.382-1.351-0.382
			c-0.936,0-1.71,0.328-2.33,0.982c-0.616,0.654-0.923,1.702-0.923,3.142v8.126h-2.252v-9.088c0-1.054-0.187-1.845-0.551-2.372
			c-0.369-0.528-0.97-0.791-1.802-0.791c-0.635,0-1.219,0.176-1.761,0.528c-0.536,0.351-0.928,0.866-1.168,1.542
			c-0.243,0.677-0.364,1.651-0.364,2.924v7.257L-217.392,38.64L-217.392,38.64z"/>
		<path fill="#FFFFFF" d="M-187.117,36.916c-0.831,0.747-1.635,1.273-2.407,1.58c-0.77,0.31-1.599,0.461-2.484,0.461
			c-1.459,0-2.582-0.374-3.367-1.125c-0.782-0.751-1.175-1.71-1.175-2.878c0-0.687,0.148-1.312,0.443-1.877
			c0.298-0.566,0.686-1.021,1.164-1.364c0.479-0.343,1.02-0.6,1.62-0.777c0.443-0.123,1.109-0.241,2.002-0.356
			c1.82-0.228,3.159-0.5,4.018-0.815c0.007-0.325,0.013-0.532,0.013-0.62c0-0.966-0.213-1.647-0.641-2.042
			c-0.574-0.534-1.43-0.804-2.563-0.804c-1.059,0-1.842,0.197-2.347,0.586c-0.506,0.392-0.875,1.083-1.118,2.075l-2.203-0.315
			c0.2-0.991,0.53-1.793,0.988-2.403c0.458-0.61,1.122-1.081,1.989-1.41c0.871-0.328,1.874-0.494,3.016-0.494
			c1.135,0,2.058,0.142,2.766,0.423c0.708,0.282,1.23,0.636,1.565,1.061c0.332,0.425,0.566,0.964,0.703,1.612
			c0.073,0.405,0.11,1.133,0.11,2.187v3.161c0,2.207,0.049,3.599,0.143,4.183c0.095,0.585,0.287,1.146,0.569,1.679h-2.352
			C-186.898,38.149-187.046,37.573-187.117,36.916z M-187.303,31.62c-0.817,0.352-2.045,0.649-3.681,0.896
			c-0.924,0.14-1.581,0.299-1.962,0.475c-0.385,0.177-0.68,0.432-0.891,0.77c-0.208,0.339-0.311,0.714-0.311,1.126
			c0,0.633,0.227,1.159,0.682,1.581c0.453,0.422,1.121,0.633,1.996,0.633c0.871,0,1.64-0.198,2.317-0.599
			c0.674-0.4,1.171-0.945,1.489-1.641c0.242-0.534,0.364-1.324,0.364-2.371v-0.87H-187.303z"/>
		<path fill="#FFFFFF" d="M-181.303,38.64V24.652h2.026v2.12c0.516-0.992,0.996-1.646,1.433-1.962
			c0.439-0.317,0.92-0.475,1.446-0.475c0.761,0,1.53,0.254,2.313,0.764l-0.774,2.2c-0.549-0.343-1.1-0.514-1.652-0.514
			c-0.492,0-0.935,0.156-1.327,0.468c-0.393,0.312-0.672,0.744-0.837,1.297c-0.252,0.842-0.374,1.766-0.374,2.766v7.324H-181.303z"
			/>
		<path fill="#FFFFFF" d="M-163.818,36.916c-0.832,0.747-1.635,1.273-2.407,1.58c-0.771,0.31-1.599,0.461-2.484,0.461
			c-1.46,0-2.582-0.374-3.367-1.125c-0.783-0.751-1.176-1.71-1.176-2.878c0-0.687,0.148-1.312,0.443-1.877
			c0.298-0.566,0.685-1.021,1.165-1.364s1.02-0.6,1.62-0.777c0.442-0.123,1.109-0.241,2.002-0.356
			c1.821-0.228,3.159-0.5,4.018-0.815c0.007-0.325,0.012-0.532,0.012-0.62c0-0.966-0.213-1.647-0.64-2.042
			c-0.575-0.534-1.432-0.804-2.563-0.804c-1.059,0-1.842,0.197-2.347,0.586c-0.506,0.392-0.877,1.083-1.119,2.075l-2.203-0.315
			c0.2-0.991,0.53-1.793,0.988-2.403c0.459-0.61,1.122-1.081,1.989-1.41c0.87-0.328,1.873-0.494,3.017-0.494
			c1.136,0,2.057,0.142,2.767,0.423c0.708,0.282,1.23,0.636,1.564,1.061c0.332,0.425,0.566,0.964,0.7,1.612
			c0.074,0.405,0.111,1.133,0.111,2.187v3.161c0,2.207,0.05,3.599,0.145,4.183c0.096,0.585,0.288,1.146,0.569,1.679h-2.352
			C-163.599,38.149-163.75,37.573-163.818,36.916z M-164.003,31.62c-0.815,0.352-2.046,0.649-3.682,0.896
			c-0.925,0.14-1.581,0.299-1.963,0.475c-0.385,0.177-0.68,0.432-0.891,0.77c-0.206,0.339-0.309,0.714-0.309,1.126
			c0,0.633,0.227,1.159,0.683,1.581c0.453,0.422,1.119,0.633,1.995,0.633c0.869,0,1.638-0.198,2.315-0.599
			c0.674-0.4,1.173-0.945,1.489-1.641c0.242-0.534,0.364-1.324,0.364-2.371v-0.87H-164.003z"/>
		<path fill="#FFFFFF" d="M-249.965,68.313V49.005h2.429v19.309H-249.965z"/>
		<path fill="#FFFFFF" d="M-243.29,68.313V54.325h2.028v1.99c0.974-1.537,2.386-2.306,4.228-2.306c0.801,0,1.54,0.151,2.21,0.454
			c0.671,0.304,1.175,0.7,1.506,1.192c0.334,0.493,0.569,1.075,0.702,1.753c0.086,0.438,0.128,1.206,0.128,2.305v8.602h-2.254
			v-8.511c0-0.967-0.088-1.689-0.262-2.167c-0.177-0.477-0.488-0.861-0.933-1.146c-0.445-0.285-0.969-0.427-1.57-0.427
			c-0.958,0-1.789,0.321-2.484,0.961c-0.696,0.642-1.046,1.858-1.046,3.65v7.64h-2.254V68.313z"/>
		<path fill="#FFFFFF" d="M-228.78,68.313V54.325h2.016v1.963c0.416-0.686,0.972-1.236,1.665-1.654
			c0.689-0.418,1.48-0.625,2.362-0.625c0.985,0,1.792,0.216,2.422,0.646c0.629,0.431,1.075,1.034,1.333,1.805
			c1.051-1.634,2.421-2.449,4.105-2.449c1.319,0,2.331,0.384,3.042,1.152c0.708,0.768,1.062,1.951,1.062,3.549v9.603h-2.24v-8.812
			c0-0.947-0.073-1.631-0.218-2.048c-0.147-0.417-0.411-0.752-0.796-1.008c-0.382-0.254-0.832-0.381-1.352-0.381
			c-0.932,0-1.709,0.326-2.325,0.982c-0.62,0.653-0.929,1.701-0.929,3.142v8.125h-2.254v-9.088c0-1.052-0.182-1.843-0.549-2.37
			c-0.365-0.527-0.968-0.791-1.802-0.791c-0.634,0-1.22,0.177-1.758,0.528c-0.537,0.351-0.927,0.864-1.169,1.542
			c-0.24,0.678-0.364,1.654-0.364,2.924v7.259h-2.25V68.313z"/>
		<path fill="#FFFFFF" d="M-208.012,61.32c0-2.589,0.683-4.509,2.051-5.756c1.144-1.036,2.535-1.554,4.179-1.554
			c1.828,0,3.322,0.63,4.481,1.89c1.159,1.259,1.739,3.002,1.739,5.222c0,1.799-0.254,3.216-0.77,4.247
			c-0.514,1.033-1.258,1.833-2.237,2.405c-0.984,0.572-2.051,0.857-3.213,0.857c-1.86,0-3.363-0.627-4.51-1.884
			C-207.439,65.49-208.012,63.682-208.012,61.32z M-205.695,61.32c0,1.792,0.367,3.131,1.111,4.021
			c0.744,0.893,1.677,1.339,2.802,1.339c1.119,0,2.051-0.448,2.792-1.344c0.74-0.896,1.112-2.26,1.112-4.096
			c0-1.729-0.375-3.04-1.12-3.931c-0.746-0.892-1.675-1.336-2.785-1.336c-1.125,0-2.059,0.441-2.802,1.329
			S-205.695,59.529-205.695,61.32z"/>
		<path fill="#FFFFFF" d="M-190.587,68.313h-2.091V49.005h2.252v6.888c0.951-1.257,2.165-1.883,3.642-1.883
			c0.816,0,1.592,0.174,2.322,0.521c0.729,0.347,1.328,0.833,1.801,1.462c0.473,0.629,0.841,1.385,1.105,2.273
			c0.269,0.888,0.401,1.836,0.401,2.844c0,2.397-0.562,4.249-1.689,5.559c-1.125,1.311-2.477,1.962-4.055,1.962
			c-1.567,0-2.797-0.691-3.688-2.068V68.313L-190.587,68.313z M-190.615,61.214c0,1.678,0.219,2.89,0.65,3.635
			c0.711,1.22,1.67,1.831,2.879,1.831c0.986,0,1.836-0.451,2.553-1.352c0.717-0.897,1.075-2.239,1.075-4.022
			c0-1.827-0.343-3.176-1.03-4.043c-0.69-0.871-1.522-1.305-2.498-1.305c-0.985,0-1.836,0.451-2.552,1.35
			C-190.257,58.208-190.615,59.511-190.615,61.214z"/>
		<path fill="#FFFFFF" d="M-178.144,51.73v-2.726h2.252v2.726H-178.144z M-178.144,68.313V54.325h2.252v13.988H-178.144z"/>
		<path fill="#FFFFFF" d="M-172.257,68.313V49.005h2.252v19.309H-172.257z"/>
		<path fill="#FFFFFF" d="M-166.243,51.73v-2.726h2.252v2.726H-166.243z M-166.243,68.313V54.325h2.252v13.988H-166.243z"/>
		<path fill="#FFFFFF" d="M-151.635,66.59c-0.833,0.745-1.637,1.271-2.408,1.581c-0.771,0.31-1.6,0.461-2.484,0.461
			c-1.459,0-2.581-0.376-3.367-1.128c-0.782-0.751-1.175-1.71-1.175-2.876c0-0.687,0.146-1.313,0.442-1.88
			c0.297-0.566,0.685-1.019,1.164-1.362c0.479-0.341,1.02-0.6,1.62-0.777c0.442-0.124,1.109-0.242,2.002-0.355
			c1.82-0.229,3.159-0.501,4.018-0.817c0.007-0.323,0.014-0.533,0.014-0.619c0-0.966-0.212-1.646-0.642-2.041
			c-0.574-0.534-1.43-0.804-2.562-0.804c-1.058,0-1.841,0.195-2.346,0.586c-0.507,0.391-0.876,1.082-1.12,2.075l-2.202-0.316
			c0.199-0.993,0.531-1.794,0.986-2.403c0.458-0.61,1.123-1.081,1.991-1.41c0.871-0.329,1.874-0.494,3.015-0.494
			c1.137,0,2.058,0.14,2.767,0.422c0.71,0.282,1.229,0.635,1.564,1.06c0.333,0.426,0.566,0.963,0.702,1.614
			c0.076,0.403,0.111,1.133,0.111,2.187v3.161c0,2.207,0.05,3.599,0.143,4.182c0.095,0.585,0.287,1.146,0.57,1.681h-2.352
			C-151.417,67.821-151.568,67.246-151.635,66.59z M-151.823,61.293c-0.816,0.352-2.045,0.651-3.68,0.896
			c-0.925,0.141-1.581,0.299-1.963,0.476c-0.385,0.176-0.68,0.431-0.891,0.768c-0.208,0.339-0.309,0.714-0.309,1.127
			c0,0.634,0.226,1.159,0.682,1.583c0.454,0.421,1.12,0.632,1.995,0.632c0.87,0,1.64-0.199,2.316-0.6
			c0.674-0.398,1.172-0.945,1.489-1.639c0.242-0.534,0.363-1.324,0.363-2.372v-0.87H-151.823z"/>
		<path fill="#FFFFFF" d="M-145.823,68.313V54.325h2.026v2.12c0.517-0.992,0.996-1.646,1.434-1.962
			c0.439-0.315,0.921-0.474,1.445-0.474c0.761,0,1.532,0.255,2.314,0.763l-0.774,2.2c-0.55-0.341-1.1-0.513-1.653-0.513
			c-0.492,0-0.934,0.154-1.326,0.468c-0.393,0.313-0.672,0.745-0.838,1.297c-0.251,0.844-0.373,1.766-0.373,2.767v7.323H-145.823z"
			/>
		<path fill="#FFFFFF" d="M-136.995,51.73v-2.726h2.252v2.726H-136.995z M-136.995,68.313V54.325h2.252v13.988H-136.995z"/>
		<path fill="#FFFFFF" d="M-122.387,66.59c-0.832,0.745-1.636,1.271-2.409,1.581c-0.77,0.31-1.598,0.461-2.484,0.461
			c-1.459,0-2.582-0.376-3.366-1.128c-0.782-0.751-1.175-1.71-1.175-2.876c0-0.687,0.148-1.313,0.443-1.88
			c0.297-0.566,0.685-1.019,1.164-1.362c0.479-0.341,1.02-0.6,1.621-0.777c0.442-0.124,1.109-0.242,2.002-0.355
			c1.82-0.229,3.158-0.501,4.017-0.817c0.008-0.323,0.014-0.533,0.014-0.619c0-0.966-0.213-1.646-0.641-2.041
			c-0.574-0.534-1.43-0.804-2.563-0.804c-1.059,0-1.841,0.195-2.347,0.586c-0.506,0.391-0.876,1.082-1.12,2.075l-2.203-0.316
			c0.2-0.993,0.531-1.794,0.988-2.403c0.457-0.61,1.123-1.081,1.99-1.41c0.87-0.329,1.873-0.494,3.016-0.494
			c1.136,0,2.058,0.14,2.767,0.422c0.709,0.282,1.229,0.635,1.564,1.06c0.332,0.426,0.566,0.963,0.701,1.614
			c0.075,0.403,0.11,1.133,0.11,2.187v3.161c0,2.207,0.05,3.599,0.145,4.182c0.095,0.585,0.287,1.146,0.569,1.681h-2.352
			C-122.168,67.821-122.319,67.246-122.387,66.59z M-122.574,61.293c-0.816,0.352-2.044,0.651-3.679,0.896
			c-0.927,0.141-1.581,0.299-1.963,0.476c-0.385,0.176-0.68,0.431-0.89,0.768c-0.208,0.339-0.311,0.714-0.311,1.127
			c0,0.634,0.227,1.159,0.682,1.583c0.454,0.421,1.119,0.632,1.996,0.632c0.87,0,1.638-0.199,2.315-0.6
			c0.674-0.398,1.172-0.945,1.49-1.639c0.242-0.534,0.364-1.324,0.364-2.372v-0.87H-122.574z"/>
		<path fill="#FFFFFF" d="M-238.34,78.678h2.43v11.156c0,1.939-0.208,3.48-0.627,4.623c-0.416,1.143-1.169,2.071-2.257,2.785
			c-1.088,0.716-2.518,1.075-4.286,1.075c-1.718,0-3.125-0.313-4.218-0.936c-1.095-0.624-1.873-1.525-2.339-2.709
			c-0.467-1.179-0.702-2.794-0.702-4.838V78.678h2.427v11.144c0,1.675,0.15,2.914,0.445,3.706c0.295,0.797,0.806,1.407,1.528,1.839
			c0.719,0.429,1.602,0.646,2.646,0.646c1.785,0,3.058-0.427,3.816-1.276c0.759-0.854,1.138-2.49,1.138-4.915V78.678L-238.34,78.678
			z"/>
		<path fill="#FFFFFF" d="M-231.925,97.987V83.999h2.026v2.12c0.517-0.993,0.996-1.646,1.435-1.963
			c0.438-0.315,0.919-0.475,1.445-0.475c0.76,0,1.532,0.254,2.313,0.765l-0.773,2.199c-0.551-0.342-1.1-0.514-1.653-0.514
			c-0.492,0-0.934,0.154-1.327,0.466c-0.392,0.314-0.671,0.746-0.837,1.299c-0.252,0.843-0.373,1.765-0.373,2.766v7.323H-231.925z"
			/>
		<path fill="#FFFFFF" d="M-214.401,97.987v-2.054c-1.035,1.582-2.439,2.372-4.218,2.372c-0.782,0-1.514-0.159-2.194-0.476
			c-0.682-0.314-1.186-0.713-1.515-1.194c-0.329-0.476-0.561-1.063-0.695-1.757c-0.093-0.465-0.139-1.204-0.139-2.213v-8.667h2.254
			v7.757c0,1.237,0.043,2.072,0.137,2.502c0.141,0.621,0.442,1.11,0.9,1.469c0.458,0.356,1.028,0.532,1.702,0.532
			c0.677,0,1.31-0.182,1.901-0.547c0.594-0.365,1.012-0.86,1.26-1.488c0.246-0.627,0.369-1.539,0.369-2.731v-7.497h2.252v13.988
			h-2.015V97.987z"/>
		<path fill="#FFFFFF" d="M-209.012,99.146l2.189,0.343c0.091,0.712,0.345,1.228,0.763,1.555c0.559,0.437,1.322,0.658,2.29,0.658
			c1.042,0,1.847-0.222,2.415-0.658c0.567-0.441,0.951-1.055,1.151-1.844c0.117-0.484,0.173-1.499,0.161-3.043
			c-0.983,1.22-2.21,1.83-3.678,1.83c-1.828,0-3.24-0.696-4.241-2.081c-1.001-1.387-1.501-3.054-1.501-4.992
			c0-1.335,0.229-2.565,0.688-3.696c0.458-1.127,1.125-1.999,1.996-2.614c0.87-0.615,1.895-0.923,3.072-0.923
			c1.566,0,2.859,0.667,3.878,2.002v-1.687h2.078v12.092c0,2.175-0.211,3.72-0.634,4.629c-0.423,0.908-1.09,1.629-2.001,2.156
			c-0.914,0.528-2.04,0.79-3.373,0.79c-1.586,0-2.865-0.377-3.844-1.125C-208.577,101.787-209.048,100.658-209.012,99.146z
			 M-207.151,90.743c0,1.833,0.348,3.174,1.042,4.019c0.691,0.843,1.559,1.265,2.602,1.265c1.032,0,1.902-0.421,2.603-1.261
			c0.701-0.837,1.051-2.151,1.051-3.942c0-1.715-0.36-3.005-1.083-3.874c-0.722-0.868-1.592-1.304-2.612-1.304
			c-1,0-1.852,0.426-2.554,1.282C-206.804,87.786-207.151,89.056-207.151,90.743z"/>
		<path fill="#FFFFFF" d="M-185.383,97.987v-2.054c-1.035,1.582-2.439,2.372-4.217,2.372c-0.782,0-1.515-0.159-2.195-0.476
			c-0.682-0.314-1.185-0.713-1.514-1.194c-0.33-0.476-0.562-1.063-0.696-1.757c-0.092-0.465-0.137-1.204-0.137-2.213v-8.667h2.252
			v7.757c0,1.237,0.045,2.072,0.137,2.502c0.143,0.621,0.443,1.11,0.901,1.469c0.458,0.356,1.028,0.532,1.702,0.532
			c0.677,0,1.309-0.182,1.902-0.547c0.592-0.365,1.011-0.86,1.259-1.488c0.246-0.627,0.368-1.539,0.368-2.731v-7.497h2.252v13.988
			h-2.015V97.987z"/>
		<path fill="#FFFFFF" d="M-170.911,96.263c-0.832,0.745-1.636,1.271-2.408,1.581c-0.77,0.306-1.6,0.461-2.484,0.461
			c-1.459,0-2.581-0.376-3.367-1.128c-0.782-0.752-1.174-1.71-1.174-2.877c0-0.687,0.146-1.313,0.443-1.88
			c0.297-0.565,0.684-1.019,1.163-1.361c0.479-0.343,1.021-0.604,1.621-0.777c0.442-0.123,1.109-0.242,2.002-0.355
			c1.82-0.229,3.158-0.501,4.016-0.818c0.009-0.326,0.015-0.531,0.015-0.618c0-0.967-0.213-1.647-0.642-2.043
			c-0.574-0.537-1.43-0.803-2.563-0.803c-1.059,0-1.841,0.195-2.346,0.585c-0.506,0.392-0.876,1.082-1.12,2.075l-2.203-0.315
			c0.199-0.992,0.531-1.794,0.987-2.404c0.458-0.609,1.122-1.082,1.991-1.411c0.871-0.328,1.874-0.492,3.015-0.492
			c1.137,0,2.058,0.142,2.767,0.423c0.708,0.28,1.229,0.636,1.564,1.059c0.333,0.427,0.566,0.965,0.702,1.614
			c0.076,0.404,0.111,1.133,0.111,2.188v3.161c0,2.202,0.05,3.6,0.144,4.182c0.095,0.585,0.288,1.144,0.57,1.681h-2.353
			C-170.692,97.495-170.844,96.92-170.911,96.263z M-171.1,90.968c-0.815,0.352-2.043,0.648-3.68,0.895
			c-0.924,0.143-1.58,0.299-1.963,0.477c-0.384,0.173-0.68,0.43-0.89,0.768c-0.209,0.339-0.31,0.714-0.31,1.126
			c0,0.635,0.226,1.159,0.682,1.584c0.454,0.421,1.12,0.632,1.995,0.632c0.87,0,1.639-0.198,2.316-0.6
			c0.674-0.399,1.172-0.944,1.488-1.64c0.242-0.536,0.363-1.326,0.363-2.37v-0.871H-171.1z"/>
		<path fill="#FFFFFF" d="M-165.173,103.375l-0.251-2.227c0.493,0.141,0.923,0.21,1.288,0.21c0.501,0,0.901-0.087,1.203-0.261
			c0.3-0.177,0.547-0.423,0.741-0.739c0.141-0.237,0.366-0.825,0.688-1.765c0.041-0.132,0.107-0.327,0.198-0.581l-5.042-14.013
			h2.428l2.766,8.1c0.358,1.028,0.68,2.108,0.964,3.241c0.257-1.092,0.566-2.154,0.924-3.188l2.84-8.153h2.253l-5.056,14.225
			c-0.542,1.537-0.961,2.595-1.262,3.175c-0.401,0.779-0.862,1.354-1.378,1.717c-0.516,0.366-1.135,0.548-1.852,0.548
			C-164.158,103.664-164.64,103.567-165.173,103.375z"/>
		<path fill="#FFFFFF" d="M-143.333,96.263c-0.834,0.745-1.639,1.271-2.411,1.581c-0.771,0.306-1.599,0.461-2.482,0.461
			c-1.461,0-2.584-0.376-3.366-1.128c-0.786-0.752-1.178-1.71-1.178-2.877c0-0.687,0.147-1.313,0.445-1.88
			c0.296-0.565,0.683-1.019,1.164-1.361c0.479-0.343,1.02-0.604,1.621-0.777c0.442-0.123,1.109-0.242,2.002-0.355
			c1.818-0.229,3.156-0.501,4.017-0.818c0.008-0.326,0.011-0.531,0.011-0.618c0-0.967-0.21-1.647-0.637-2.043
			c-0.575-0.537-1.431-0.803-2.566-0.803c-1.059,0-1.841,0.195-2.344,0.585c-0.506,0.392-0.88,1.082-1.12,2.075l-2.204-0.315
			c0.201-0.992,0.531-1.794,0.988-2.404c0.459-0.609,1.122-1.082,1.989-1.411c0.868-0.328,1.875-0.492,3.017-0.492
			c1.132,0,2.055,0.142,2.766,0.423c0.709,0.28,1.23,0.636,1.562,1.059c0.335,0.427,0.569,0.965,0.702,1.614
			c0.077,0.404,0.113,1.133,0.113,2.188v3.161c0,2.202,0.046,3.6,0.144,4.182c0.095,0.585,0.285,1.144,0.569,1.681h-2.353
			C-143.116,97.495-143.266,96.92-143.333,96.263z M-143.52,90.968c-0.819,0.352-2.044,0.648-3.68,0.895
			c-0.924,0.143-1.581,0.299-1.965,0.477c-0.382,0.173-0.68,0.43-0.888,0.768c-0.208,0.339-0.314,0.714-0.314,1.126
			c0,0.635,0.227,1.159,0.683,1.584c0.456,0.421,1.119,0.632,1.997,0.632c0.867,0,1.639-0.198,2.316-0.6
			c0.674-0.399,1.169-0.944,1.49-1.64c0.243-0.536,0.364-1.326,0.364-2.37v-0.871H-143.52z"/>
	</g>
</g>
</svg>
