<?xml version="1.0" encoding="utf-8"?>
<!-- Generator: Adobe Illustrator 16.0.0, SVG Export Plug-In . SVG Version: 6.00 Build 0)  -->
<!DOCTYPE svg PUBLIC "-//W3C//DTD SVG 1.1//EN" "http://www.w3.org/Graphics/SVG/1.1/DTD/svg11.dtd">
<svg version="1.1" id="Layer_1" xmlns="http://www.w3.org/2000/svg" xmlns:xlink="http://www.w3.org/1999/xlink" x="0px" y="0px"
	 width="211.25px" height="33.75px" viewBox="0 0 211.25 33.75" enable-background="new 0 0 211.25 33.75" xml:space="preserve">
<g>
	<path fill="#F26522" d="M27.847,31.694V19.896c0-1.468-0.201-2.569-0.604-3.303c-0.402-0.735-1.037-1.102-1.905-1.102
		c-1.149,0-1.992,0.491-2.528,1.475c-0.537,0.983-0.804,2.521-0.804,4.615v10.112h-7.507V19.896c0-1.468-0.191-2.569-0.575-3.303
		c-0.383-0.735-1.002-1.102-1.857-1.102c-1.175,0-2.03,0.523-2.566,1.57s-0.805,2.758-0.805,5.132v9.5H1.208V9.996h5.649
		l0.938,2.681h0.44c0.575-0.996,1.408-1.756,2.5-2.279c1.091-0.523,2.333-0.785,3.725-0.785c3.128,0,5.324,0.951,6.587,2.854h0.594
		c0.613-0.894,1.466-1.593,2.557-2.097s2.295-0.756,3.61-0.756c2.566,0,4.462,0.658,5.688,1.973
		c1.226,1.315,1.838,3.313,1.838,5.994v14.115H27.847z"/>
	<path fill="#F26522" d="M40.276,4.594c0-1.123,0.313-1.959,0.938-2.508c0.626-0.549,1.634-0.824,3.026-0.824
		c1.391,0,2.406,0.281,3.045,0.843c0.638,0.563,0.957,1.392,0.957,2.489c0,2.197-1.333,3.294-4.002,3.294
		C41.597,7.889,40.276,6.791,40.276,4.594z M47.956,31.694h-7.488V9.996h7.488V31.694z"/>
	<path fill="#FFFCEA" d="M67.336,31.694L65.9,28.821h-0.153c-1.008,1.251-2.037,2.106-3.083,2.565c-1.047,0.46-2.4,0.689-4.06,0.689
		c-2.043,0-3.651-0.612-4.826-1.838c-1.175-1.226-1.762-2.949-1.762-5.17c0-2.311,0.804-4.031,2.414-5.161
		c1.608-1.13,3.938-1.765,6.99-1.905l3.62-0.115v-0.307c0-1.787-0.881-2.681-2.643-2.681c-1.583,0-3.595,0.536-6.033,1.608
		l-2.164-4.941c2.527-1.302,5.719-1.953,9.575-1.953c2.783,0,4.938,0.689,6.463,2.068c1.525,1.379,2.289,3.307,2.289,5.784v14.229
		H67.336z M61.783,26.791c0.907,0,1.682-0.287,2.327-0.862c0.645-0.574,0.967-1.321,0.967-2.24v-1.685l-1.724,0.076
		c-2.464,0.09-3.696,0.996-3.696,2.72C59.657,26.127,60.366,26.791,61.783,26.791z"/>
	<path fill="#FFFCEA" d="M84.362,32.076c-1.545,0-2.895-0.44-4.05-1.321c-1.156-0.881-2.049-2.177-2.682-3.888
		c-0.631-1.711-0.947-3.709-0.947-5.995c0-3.524,0.708-6.281,2.125-8.273c1.417-1.992,3.364-2.987,5.841-2.987
		c1.212,0,2.276,0.242,3.188,0.728s1.746,1.302,2.5,2.452h0.153c-0.242-1.698-0.364-3.396-0.364-5.094V1.894h7.545v29.8h-5.649
		l-1.608-2.739h-0.288C88.836,31.036,86.916,32.076,84.362,32.076z M87.426,26.159c1.2,0,2.046-0.376,2.538-1.129
		c0.491-0.754,0.756-1.916,0.795-3.486v-0.594c0-1.915-0.275-3.277-0.824-4.088c-0.549-0.811-1.411-1.216-2.585-1.216
		c-0.983,0-1.746,0.463-2.289,1.389c-0.542,0.926-0.814,2.243-0.814,3.954c0,1.686,0.274,2.969,0.824,3.85
		C85.619,25.718,86.405,26.159,87.426,26.159z"/>
	<path fill="#FFFCEA" d="M129.482,31.694V19.896c0-1.468-0.201-2.569-0.604-3.303c-0.402-0.735-1.038-1.102-1.906-1.102
		c-1.148,0-1.992,0.491-2.528,1.475s-0.804,2.521-0.804,4.615v10.112h-7.507V19.896c0-1.468-0.191-2.569-0.574-3.303
		c-0.383-0.735-1.002-1.102-1.857-1.102c-1.175,0-2.03,0.523-2.567,1.57c-0.536,1.047-0.804,2.758-0.804,5.132v9.5h-7.489V9.996
		h5.65l0.938,2.681h0.44c0.575-0.996,1.408-1.756,2.5-2.279s2.333-0.785,3.725-0.785c3.128,0,5.324,0.951,6.588,2.854h0.593
		c0.613-0.894,1.466-1.593,2.558-2.097c1.091-0.504,2.294-0.756,3.609-0.756c2.566,0,4.462,0.658,5.688,1.973
		c1.226,1.315,1.838,3.313,1.838,5.994v14.115H129.482z"/>
	<path fill="#FFFCEA" d="M141.911,4.594c0-1.123,0.313-1.959,0.938-2.508c0.626-0.549,1.635-0.824,3.026-0.824
		c1.391,0,2.406,0.281,3.045,0.843c0.638,0.563,0.958,1.392,0.958,2.489c0,2.197-1.334,3.294-4.003,3.294
		C143.232,7.889,141.911,6.791,141.911,4.594z M149.591,31.694h-7.488V9.996h7.488V31.694z"/>
	<path fill="#FFFCEA" d="M168.512,31.694V19.858c0-1.442-0.208-2.531-0.623-3.265c-0.415-0.735-1.082-1.102-2.001-1.102
		c-1.264,0-2.177,0.504-2.739,1.513c-0.562,1.009-0.842,2.739-0.842,5.19v9.5h-7.488V9.996h5.649l0.938,2.681h0.441
		c0.638-1.021,1.522-1.788,2.652-2.299c1.13-0.51,2.429-0.766,3.897-0.766c2.4,0,4.268,0.696,5.602,2.087
		c1.334,1.392,2.001,3.352,2.001,5.879v14.115H168.512z"/>
</g>
</svg>
