<?xml version="1.0" encoding="utf-8"?>
<!-- Generator: Adobe Illustrator 16.0.0, SVG Export Plug-In . SVG Version: 6.00 Build 0)  -->
<!DOCTYPE svg PUBLIC "-//W3C//DTD SVG 1.1//EN" "http://www.w3.org/Graphics/SVG/1.1/DTD/svg11.dtd">
<svg version="1.1" id="_x33_60_icon_1_" xmlns="http://www.w3.org/2000/svg" xmlns:xlink="http://www.w3.org/1999/xlink" x="0px"
	 y="0px" width="63px" height="44px" viewBox="0 0 63 44" enable-background="new 0 0 63 44" xml:space="preserve">
<g id="Rectangle_2">
	<g>
		<path fill-rule="evenodd" clip-rule="evenodd" fill="#FFFFFF" d="M62.998,10.755c-0.148,3.174-3.977,7.185-10.025,8.63
			l-0.073,24.618c5.602-1.88,9.95-5.851,10.031-9.312h0.003c0,0,0.051-17.354,0.07-23.646
			C63.004,10.948,63.002,10.852,62.998,10.755z M0.099,10.34c-0.026,0.227-0.025,0.354-0.025,0.354L0.003,34.509h0.073
			c0.063,3.446,4.506,7.203,10.351,9.075L10.501,19.3C3.633,17.528,0.409,13.45,0.099,10.34z M52.218,2.999
			c-4.345-1.426-11.226-2.996-20.515-2.996c-8.368,0-15.541,1.259-19.587,2.445C0.208,5.939,1.453,12.279,5.937,14.771
			c4,2.224,6.644,2.783,6.644,2.783l0.415,14.126c2.894-1.141,11.155-2.801,19.278-2.801c8.061,0,16.072,0.903,18.719,2.587V17.554
			c0,0,2.771,0.149,7.267-2.997C61.586,12.228,62.445,6.356,52.218,2.999z M37.012,16.229V23H25.988v-6.771h-4.995L31.5,5.993
			l10.507,10.236H37.012z"/>
	</g>
</g>
</svg>
